<?xml version="1.0" encoding="UTF-8"?>
<svg id="Layer_1" data-name="Layer 1" xmlns="http://www.w3.org/2000/svg" xmlns:xlink="http://www.w3.org/1999/xlink" viewBox="0 0 300 100">
  <defs>
    <style>
      .cls-1 {
        fill: url(#linear-gradient);
      }

      .cls-2 {
        fill: url(#linear-gradient-2);
      }
    </style>
    <linearGradient id="linear-gradient" x1="27.25" y1="36.26" x2="243.97" y2="89.55" gradientUnits="userSpaceOnUse">
      <stop offset="0" stop-color="#ffb600"/>
      <stop offset="1" stop-color="#ff7800"/>
    </linearGradient>
    <linearGradient id="linear-gradient-2" x1="9.1" y1="13.84" x2="68.84" y2="117.3" gradientUnits="userSpaceOnUse">
      <stop offset="0" stop-color="#ffc200"/>
      <stop offset="1" stop-color="#ff7800"/>
    </linearGradient>
  </defs>
  <path class="cls-1" d="M275.94,66.67H108.64c-3.18,0-5.76,1.79-5.76,3.99s2.58,3.99,5.76,3.99h31.44c1.56,0,2.83,.88,2.83,1.96v.56c0,1.08-1.27,1.96-2.83,1.96h-16.88c-3.18,0-5.76,1.79-5.76,3.99v.56c0,2.2,2.58,3.99,5.76,3.99h16.88c1.56,0,2.83,.88,2.83,1.96s-1.27,1.96-2.83,1.96h-27.4l-26.66-29.11c2.51-1.5,4.8-3.39,6.81-5.58,5.52-6.04,8.94-14.37,8.94-23.57C101.76,14.93,88.09,0,71.23,0H0L20.35,22.22h50.88c5.61,0,10.18,4.99,10.18,11.11s-4.57,11.11-10.18,11.11h-30.53l20.35,22.22,30.53,33.33h184.35c13.29,0,24.06-7.46,24.06-16.67h0c0-9.2-10.77-16.67-24.06-16.67Z"/>
  <polygon class="cls-2" points=".43 40.98 54.29 99.79 83.07 99.79 .43 9.55 .43 40.98"/>
</svg>