<?xml version="1.0" encoding="UTF-8" standalone="no"?>
<!-- Created with Inkscape (http://www.inkscape.org/) -->

<svg
   version="1.1"
   id="svg10818"
   xml:space="preserve"
   width="682.66669"
   height="682.66669"
   viewBox="0 0 682.66669 682.66669"
   xmlns="http://www.w3.org/2000/svg"
   xmlns:svg="http://www.w3.org/2000/svg"><defs
     id="defs10822"><clipPath
       clipPathUnits="userSpaceOnUse"
       id="clipPath10832"><path
         d="M 0,512 H 512 V 0 H 0 Z"
         id="path10830" /></clipPath></defs><g
     id="g10824"
     transform="matrix(1.3333333,0,0,-1.3333333,0,682.66667)"><g
       id="g10826"><g
         id="g10828"
         clip-path="url(#clipPath10832)"><g
           id="g10834"
           transform="translate(163.3838,429.3945)"><path
             d="m 0,0 c -10.402,0 -18.935,-8.532 -18.935,-18.964 v -17.063 c 0,-10.432 8.533,-18.935 18.935,-18.935 H 18.963 C 42.318,-28.459 31.207,-7.483 17.63,0 Z"
             style="fill:#9fd4fe;fill-opacity:1;fill-rule:evenodd;stroke:none"
             id="path10836" /></g><g
           id="g10838"
           transform="translate(342.9189,374.4326)"><path
             d="m 0,0 h 19.161 1.106 c 10.43,0 18.934,8.531 18.934,18.935 v 17.063 c 0,10.432 -8.504,18.964 -18.934,18.964 H 1.304 C -13.351,48.271 -15.703,11.508 0,0"
             style="fill:#9fd4fe;fill-opacity:1;fill-rule:evenodd;stroke:none"
             id="path10840" /></g><g
           id="g10842"
           transform="translate(144.4492,393.3672)"><path
             d="m 0,0 c 0,-10.432 8.532,-18.935 18.935,-18.935 h 18.962 c 4.11,4.649 7.143,9.156 9.297,13.436 H 36.593 18.935 C 8.532,-5.499 0,3.033 0,13.436 Z"
             style="fill:#85beef;fill-opacity:1;fill-rule:evenodd;stroke:none"
             id="path10844" /></g><g
           id="g10846"
           transform="translate(344.2227,387.8682)"><path
             d="m 0,0 h -10.091 c 1.73,-5.584 4.649,-10.403 8.787,-13.436 h 19.161 1.106 c 10.431,0 18.934,8.532 18.934,18.935 V 18.935 C 37.897,8.532 29.394,0 18.963,0 h -1.106 z"
             style="fill:#85beef;fill-opacity:1;fill-rule:evenodd;stroke:none"
             id="path10848" /></g><g
           id="g10850"
           transform="translate(283.3955,315.5869)"><path
             d="m 0,0 c -7.512,-2.807 -14.145,-4.195 -20.749,-4.195 -6.632,0 -13.265,1.388 -20.776,4.195 -6.86,2.551 -13.493,6.095 -19.7,10.374 v -48.045 l 35.091,-28.94 h 10.742 l 15.93,13.123 8.504,7.002 10.657,8.815 V 10.374 C 13.521,6.095 6.888,2.551 0,0"
             style="fill:#f5a96c;fill-opacity:1;fill-rule:evenodd;stroke:none"
             id="path10852" /></g><g
           id="g10854"
           transform="translate(262.6465,311.3916)"><path
             d="m 0,0 c -6.632,0 -13.265,1.389 -20.776,4.195 -6.86,2.551 -13.493,6.095 -19.7,10.374 V -9.467 c 8.333,-9.326 40.76,-21.684 61.678,-10.913 v -28.374 l 19.246,25.879 v 26.844 10.6 C 34.27,10.29 27.637,6.746 20.749,4.195 13.237,1.389 6.604,0 0,0"
             style="fill:#ea9a58;fill-opacity:1;fill-rule:evenodd;stroke:none"
             id="path10856" /></g><g
           id="g10858"
           transform="translate(244.875,134.8564)"><path
             d="m 0,0 17.771,73.812 -66.156,71.572 c -11.99,-4.507 -24.745,-10.261 -36.593,-17.376 -19.87,-11.962 -37.188,-27.835 -43.962,-48.244 -1.985,-5.924 -3.062,-12.245 -3.062,-18.963 V 9.212 C -132.427,1.87 -130.669,0 -123.47,0 h 90.675 z"
             style="fill:#375e7d;fill-opacity:1;fill-rule:evenodd;stroke:none"
             id="path10860" /></g><g
           id="g10862"
           transform="translate(412.3916,195.6572)"><path
             d="m 0,0 c 0,43.624 -45.663,70.325 -83.616,84.583 l -66.129,-71.572 19.615,-73.812 H -8.531 c 7.227,0 8.957,1.87 8.531,9.212 z"
             style="fill:#375e7d;fill-opacity:1;fill-rule:evenodd;stroke:none"
             id="path10864" /></g><g
           id="g10866"
           transform="translate(292.6074,134.8564)"><path
             d="M 0,0 -13.351,73.812 -29.961,82.797 -46.599,73.812 -59.949,0 h 29.988 z"
             style="fill:#eb5468;fill-opacity:1;fill-rule:evenodd;stroke:none"
             id="path10868" /></g><g
           id="g10870"
           transform="translate(262.6465,217.6533)"><path
             d="M 0,0 -16.638,-8.985 -18.82,-21.146 H 3.827 L 14.995,-82.797 H 29.961 L 16.61,-8.985 Z"
             style="fill:#e5384f;fill-opacity:1;fill-rule:evenodd;stroke:none"
             id="path10872" /></g><g
           id="g10874"
           transform="translate(293.1172,238.1475)"><path
             d="M 0,0 -30.471,17.007 -60.941,0 -47.108,-29.479 h 16.637 16.611 z"
             style="fill:#eb5468;fill-opacity:1;fill-rule:evenodd;stroke:none"
             id="path10876" /></g><g
           id="g10878"
           transform="translate(262.6465,255.1543)"><path
             d="m 0,0 -30.471,-17.007 6.69,-14.258 11.111,6.207 12.67,7.059 14.229,-7.965 9.524,-5.301 6.718,14.258 z"
             style="fill:#e5384f;fill-opacity:1;fill-rule:evenodd;stroke:none"
             id="path10880" /></g><g
           id="g10882"
           transform="translate(262.6465,255.1543)"><path
             d="m 0,0 -40.476,33.362 c -7.568,-2.04 -16.412,-4.79 -25.68,-8.276 l 24.858,-48.103 10.827,6.01 z"
             style="fill:#eff6ff;fill-opacity:1;fill-rule:evenodd;stroke:none"
             id="path10884" /></g><g
           id="g10886"
           transform="translate(328.7754,280.2402)"><path
             d="m 0,0 c -9.27,3.486 -18.084,6.236 -25.681,8.276 l -40.448,-33.362 30.471,-17.007 10.828,-6.01 z"
             style="fill:#eff6ff;fill-opacity:1;fill-rule:evenodd;stroke:none"
             id="path10888" /></g><g
           id="g10890"
           transform="translate(328.7754,280.2402)"><path
             d="m 0,0 c -9.27,3.486 -18.084,6.236 -25.681,8.276 l -10.657,-8.787 -8.504,-7.001 c 8.022,-2.551 16.752,-5.725 25.596,-9.552 2.834,-1.219 5.641,-2.523 8.446,-3.855 z"
             style="fill:#d9eeff;fill-opacity:1;fill-rule:evenodd;stroke:none"
             id="path10892" /></g><g
           id="g10894"
           transform="translate(412.3916,195.6572)"><path
             d="m 0,0 c 0,43.624 -45.663,70.325 -83.616,84.583 l -10.8,-20.919 c 37.954,-14.258 63.237,-40.959 63.237,-84.583 v -39.882 h 22.648 c 7.227,0 8.957,1.87 8.531,9.212 z"
             style="fill:#2b4d66;fill-opacity:1;fill-rule:evenodd;stroke:none"
             id="path10896" /></g><g
           id="g10898"
           transform="translate(344.2227,385.9404)"><path
             d="m 0,0 v 21.004 c -11.31,25.795 -130.216,87.814 -163.181,-5.981 V 0 c 0,-29.281 27.524,-66.017 61.168,-78.488 7.37,-2.75 13.89,-4.111 20.437,-4.111 6.519,0 13.039,1.361 20.436,4.111 C -27.522,-66.017 0,-29.281 0,0"
             style="fill:#ffbc85;fill-opacity:1;fill-rule:evenodd;stroke:none"
             id="path10900" /></g><g
           id="g10902"
           transform="translate(344.2227,436.2256)"><path
             d="m 0,0 c 0,59.894 -96.429,89.77 -126.615,50.568 -39.428,-3.486 -36.537,-55.954 -36.537,-62.87 l -0.029,-16.979 v -5.981 c 27.864,20.692 18.623,15.505 38.521,27.807 30.386,18.765 56.208,-21.826 104.393,-21.826 l 20.267,0 z"
             style="fill:#375e7d;fill-opacity:1;fill-rule:evenodd;stroke:none"
             id="path10904" /></g><g
           id="g10906"
           transform="translate(302.4707,317.6562)"><path
             d="m 0,0 c 15.646,10.828 28.516,26.418 35.658,42.404 3.911,8.731 6.094,17.603 6.094,25.88 v 21.004 c -8.22,7.029 -17.177,10.204 -26.049,0.198 V 68.284 c 0,-23.413 -17.573,-51.589 -41.837,-68.341 -6.065,-4.195 -12.556,-7.653 -19.303,-10.147 -2.579,-0.964 -5.016,-1.73 -7.425,-2.353 4.507,-1.191 8.758,-1.757 13.038,-1.757 6.519,0 13.039,1.36 20.436,4.11 C -12.642,-7.71 -6.094,-4.195 0,0"
             style="fill:#f5a96c;fill-opacity:1;fill-rule:evenodd;stroke:none"
             id="path10908" /></g><g
           id="g10910"
           transform="translate(318.1738,407.1426)"><path
             d="m 0,0 c 1.899,-0.142 3.827,-0.198 5.782,-0.198 h 20.267 v 29.281 c 0,45.919 -56.661,74.18 -96.712,67.207 C -35.855,90.961 0,65.592 0,29.083 Z"
             style="fill:#2b4d66;fill-opacity:1;fill-rule:evenodd;stroke:none"
             id="path10912" /></g><g
           id="g10914"
           transform="translate(32.5166,155.4639)"><path
             d="m 0,0 h 446.967 c 13.748,0 25,-11.254 25,-25.001 v -97.962 c 0,-13.748 -11.252,-25.001 -25,-25.001 H 0 c -13.748,0 -25,11.253 -25,25.001 v 97.962 C -25,-11.254 -13.748,0 0,0"
             style="fill:#9fd4fe;fill-opacity:1;fill-rule:evenodd;stroke:none"
             id="path10916" /></g><g
           id="g10918"
           transform="translate(504.4834,32.501)"><path
             d="m 0,0 v 97.962 c 0,13.747 -11.252,25.001 -25,25.001 h -37.386 c 13.747,0 25,-11.254 25,-25.001 V 79.396 0 c 0,-13.748 -11.253,-25.001 -25,-25.001 H -25 c 13.748,0 25,11.253 25,25.001"
             style="fill:#85beef;fill-opacity:1;fill-rule:evenodd;stroke:none"
             id="path10920" /></g><g
           id="g10922"
           transform="translate(279.2568,208.668)"><path
             d="M 0,0 9.637,-53.204"
             style="fill:none;stroke:#000000;stroke-width:15.118;stroke-linecap:round;stroke-linejoin:round;stroke-miterlimit:10;stroke-dasharray:none;stroke-opacity:1"
             id="path10924" /></g><g
           id="g10926"
           transform="translate(441.502,108.0127)"><path
             d="M 0,0 H 29.394"
             style="fill:none;stroke:#000000;stroke-width:15.118;stroke-linecap:round;stroke-linejoin:round;stroke-miterlimit:10;stroke-dasharray:none;stroke-opacity:1"
             id="path10928" /></g><g
           id="g10930"
           transform="translate(456.1279,106.3125)"><path
             d="M 0,0 V -51.532"
             style="fill:none;stroke:#000000;stroke-width:15.118;stroke-linecap:round;stroke-linejoin:round;stroke-miterlimit:10;stroke-dasharray:none;stroke-opacity:1"
             id="path10932" /></g><g
           id="g10934"
           transform="translate(388.7812,80.376)"><path
             d="M 0,0 22.363,-25.397"
             style="fill:none;stroke:#000000;stroke-width:15.118;stroke-linecap:round;stroke-linejoin:round;stroke-miterlimit:10;stroke-dasharray:none;stroke-opacity:1"
             id="path10936" /></g><g
           id="g10938"
           transform="translate(382.375,108.2119)"><path
             d="M 0,0 V -53.233"
             style="fill:none;stroke:#000000;stroke-width:15.118;stroke-linecap:round;stroke-linejoin:round;stroke-miterlimit:10;stroke-dasharray:none;stroke-opacity:1"
             id="path10940" /></g><g
           id="g10942"
           transform="translate(411.1445,94.3789)"><path
             d="m 0,0 c 0,-7.653 -6.689,-13.833 -14.626,-13.833 -3.911,0 -14.03,-0.057 -14.03,-0.057 0,0 -0.057,10.035 -0.057,13.89 0,3.146 -0.057,13.833 -0.057,13.833 h 14.144 C -6.689,13.833 0,7.625 0,0 Z"
             style="fill:none;stroke:#000000;stroke-width:15.118;stroke-linecap:round;stroke-linejoin:round;stroke-miterlimit:10;stroke-dasharray:none;stroke-opacity:1"
             id="path10944" /></g><g
           id="g10946"
           transform="translate(237.165,108.2119)"><path
             d="M 0,0 V -53.233"
             style="fill:none;stroke:#000000;stroke-width:15.118;stroke-linecap:round;stroke-linejoin:round;stroke-miterlimit:10;stroke-dasharray:none;stroke-opacity:1"
             id="path10948" /></g><g
           id="g10950"
           transform="translate(267.2949,93.1885)"><path
             d="m 0,0 c 0,-8.306 -7.001,-15.023 -15.306,-15.023 -4.11,0 -14.711,-0.057 -14.711,-0.057 0,0 -0.085,10.885 -0.085,15.08 0,3.43 -0.028,15.023 -0.028,15.023 h 14.824 C -7.001,15.023 0,8.305 0,0 Z"
             style="fill:none;stroke:#000000;stroke-width:15.118;stroke-linecap:round;stroke-linejoin:round;stroke-miterlimit:10;stroke-dasharray:none;stroke-opacity:1"
             id="path10952" /></g><g
           id="g10954"
           transform="translate(73.8994,102.7412)"><path
             d="m 0,0 c 0,0 -9.552,8.021 -20.805,4.62 -10.345,-3.09 -11.792,-15.023 -4.308,-19.898 0,0 7.341,-3.288 15.476,-6.293 19.615,-7.229 11.167,-26.192 -4.621,-26.192 -7.908,0 -14.54,3.458 -18.537,7.88"
             style="fill:none;stroke:#000000;stroke-width:15.118;stroke-linecap:round;stroke-linejoin:round;stroke-miterlimit:10;stroke-dasharray:none;stroke-opacity:1"
             id="path10956" /></g><g
           id="g10958"
           transform="translate(105.0215,108.2119)"><path
             d="m 0,0 v -36.623 c 0,-6.235 3.09,-10.459 8.362,-13.804 2.551,-1.644 5.783,-2.806 9.807,-2.806 3.487,0 6.378,0.794 8.787,2.012 6.123,3.09 10.034,7.767 10.034,14.626 V 0"
             style="fill:none;stroke:#000000;stroke-width:15.118;stroke-linecap:round;stroke-linejoin:round;stroke-miterlimit:10;stroke-dasharray:none;stroke-opacity:1"
             id="path10960" /></g><g
           id="g10962"
           transform="translate(176.5928,108.2119)"><path
             d="M 0,0 V -53.233"
             style="fill:none;stroke:#000000;stroke-width:15.118;stroke-linecap:round;stroke-linejoin:round;stroke-miterlimit:10;stroke-dasharray:none;stroke-opacity:1"
             id="path10964" /></g><g
           id="g10966"
           transform="translate(206.7227,93.1885)"><path
             d="m 0,0 c 0,-8.306 -7.029,-15.023 -15.306,-15.023 -4.11,0 -14.739,-0.057 -14.739,-0.057 0,0 -0.057,10.885 -0.057,15.08 0,3.43 -0.028,15.023 -0.028,15.023 h 14.824 C -7.029,15.023 0,8.305 0,0 Z"
             style="fill:none;stroke:#000000;stroke-width:15.118;stroke-linecap:round;stroke-linejoin:round;stroke-miterlimit:10;stroke-dasharray:none;stroke-opacity:1"
             id="path10968" /></g><g
           id="g10970"
           transform="translate(348.8711,81.5947)"><path
             d="M 0,0 C 0,14.655 -11.961,26.617 -26.615,26.617 -41.27,26.617 -53.231,14.655 -53.231,0 c 0,-14.654 11.961,-26.616 26.616,-26.616 C -11.961,-26.616 0,-14.654 0,0 Z"
             style="fill:none;stroke:#000000;stroke-width:15.118;stroke-linecap:round;stroke-linejoin:round;stroke-miterlimit:10;stroke-dasharray:none;stroke-opacity:1"
             id="path10972" /></g><g
           id="g10974"
           transform="translate(293.1172,238.1475)"><path
             d="M 0,0 -13.86,-29.479 H -30.471 -47.108 L -60.941,0"
             style="fill:none;stroke:#000000;stroke-width:15.118;stroke-linecap:round;stroke-linejoin:round;stroke-miterlimit:10;stroke-dasharray:none;stroke-opacity:1"
             id="path10976" /></g><g
           id="g10978"
           transform="translate(303.0947,288.5166)"><path
             d="M 0,0 -40.448,-33.362 0.851,-56.379 25.681,-8.276"
             style="fill:none;stroke:#000000;stroke-width:15.118;stroke-linecap:round;stroke-linejoin:round;stroke-miterlimit:10;stroke-dasharray:none;stroke-opacity:1"
             id="path10980" /></g><g
           id="g10982"
           transform="translate(222.1709,288.5166)"><path
             d="M 0,0 40.476,-33.362 -0.822,-56.379 -25.681,-8.276"
             style="fill:none;stroke:#000000;stroke-width:15.118;stroke-linecap:round;stroke-linejoin:round;stroke-miterlimit:10;stroke-dasharray:none;stroke-opacity:1"
             id="path10984" /></g><g
           id="g10986"
           transform="translate(243.0039,7.5)"><path
             d="m 0,0 h -210.487 c -13.748,0 -25,11.253 -25,25.001 v 97.962 c 0,13.747 11.252,25.001 25,25.001 h 446.966 c 13.749,0 25,-11.254 25,-25.001 V 25.001 C 261.479,11.253 250.228,0 236.479,0 H 35.232"
             style="fill:none;stroke:#000000;stroke-width:15.118;stroke-linecap:round;stroke-linejoin:round;stroke-miterlimit:10;stroke-dasharray:none;stroke-opacity:1"
             id="path10988" /></g><g
           id="g10990"
           transform="translate(246.0088,208.668)"><path
             d="M 0,0 -9.609,-53.204"
             style="fill:none;stroke:#000000;stroke-width:15.118;stroke-linecap:round;stroke-linejoin:round;stroke-miterlimit:10;stroke-dasharray:none;stroke-opacity:1"
             id="path10992" /></g><g
           id="g10994"
           transform="translate(112.873,155.4639)"><path
             d="m 0,0 v 40.193 c 0,54.282 70.749,82.401 109.298,92.86 v 26.843 M 272.308,93.199 C 288.266,79.339 299.519,61.85 299.519,40.193 V 0 M 190.222,159.896 v -26.843 c 15.277,-4.138 35.6,-11.055 54.591,-21.287"
             style="fill:none;stroke:#000000;stroke-width:15.118;stroke-linecap:round;stroke-linejoin:round;stroke-miterlimit:10;stroke-dasharray:none;stroke-opacity:1"
             id="path10996" /></g><g
           id="g10998"
           transform="translate(181.042,400.9639)"><path
             d="M 0,0 C 27.863,20.691 18.623,15.505 38.521,27.807 68.906,46.571 94.729,5.98 142.914,5.98 h 20.267 v 29.282 c 0,59.893 -96.429,89.769 -126.616,50.568 C -2.862,82.344 0.028,29.876 0.028,22.96 Z"
             style="fill:none;stroke:#000000;stroke-width:15.118;stroke-linecap:round;stroke-linejoin:round;stroke-miterlimit:10;stroke-dasharray:none;stroke-opacity:1"
             id="path11000" /></g><g
           id="g11002"
           transform="translate(181.042,400.9639)"><path
             d="m 0,0 v -15.023 c 0,-29.282 27.523,-66.017 61.168,-78.489 7.37,-2.75 13.89,-4.11 20.436,-4.11 6.52,0 13.04,1.36 20.437,4.11 33.617,12.472 61.14,49.207 61.14,78.489 V 5.98"
             style="fill:none;stroke:#000000;stroke-width:15.118;stroke-linecap:round;stroke-linejoin:round;stroke-miterlimit:10;stroke-dasharray:none;stroke-opacity:1"
             id="path11004" /></g><g
           id="g11006"
           transform="translate(344.2227,429.3945)"><path
             d="m 0,0 h 18.963 c 10.431,0 18.934,-8.532 18.934,-18.964 v -17.063 c 0,-10.404 -8.503,-18.935 -18.934,-18.935 H -1.304"
             style="fill:none;stroke:#000000;stroke-width:15.118;stroke-linecap:round;stroke-linejoin:round;stroke-miterlimit:10;stroke-dasharray:none;stroke-opacity:1"
             id="path11008" /></g><g
           id="g11010"
           transform="translate(362.0801,374.4326)"><path
             d="m 0,0 v -23.158 c 0,-13.578 -11.111,-24.69 -24.66,-24.69 h -69.388"
             style="fill:none;stroke:#000000;stroke-width:15.118;stroke-linecap:round;stroke-linejoin:round;stroke-miterlimit:10;stroke-dasharray:none;stroke-opacity:1"
             id="path11012" /></g><g
           id="g11014"
           transform="translate(181.0137,429.3945)"><path
             d="m 0,0 h -17.63 c -10.402,0 -18.934,-8.532 -18.934,-18.964 v -17.063 c 0,-10.432 8.532,-18.935 18.934,-18.935 H 1.333"
             style="fill:none;stroke:#000000;stroke-width:15.118;stroke-linecap:round;stroke-linejoin:round;stroke-miterlimit:10;stroke-dasharray:none;stroke-opacity:1"
             id="path11016" /></g></g></g></g></svg>
